<svg id="visual" viewBox="0 0 1920 1080" width="1920" height="1080" xmlns="http://www.w3.org/2000/svg" xmlns:xlink="http://www.w3.org/1999/xlink" version="1.1"><rect x="0" y="0" width="1920" height="1080" fill="#FFFFFF"></rect><defs><linearGradient id="grad1_0" x1="43.8%" y1="0%" x2="100%" y2="100%"><stop offset="14.444444444444446%" stop-color="#ffffff" stop-opacity="1"></stop><stop offset="85.55555555555554%" stop-color="#ffffff" stop-opacity="1"></stop></linearGradient></defs><defs><linearGradient id="grad2_0" x1="0%" y1="0%" x2="56.3%" y2="100%"><stop offset="14.444444444444446%" stop-color="#ffffff" stop-opacity="1"></stop><stop offset="85.55555555555554%" stop-color="#ffffff" stop-opacity="1"></stop></linearGradient></defs><g transform="translate(1920, 0)"><path d="M0 594C-52.8 532 -105.5 470.1 -187.5 452.7C-269.5 435.3 -380.8 462.5 -420 420C-459.3 377.5 -426.5 265.3 -443.5 183.7C-460.5 102.1 -527.2 51 -594 0L0 0Z" fill="#FFA300"></path></g><g transform="translate(0, 1080)"><path d="M0 -594C77.6 -586.7 155.2 -579.4 227.3 -548.8C299.4 -518.2 366.1 -464.3 399.5 -399.5C433 -334.7 433.2 -259 460.1 -190.6C487 -122.2 540.5 -61.1 594 0L0 0Z" fill="#FFA300"></path></g></svg>